<svg width="182" height="30" viewBox="0 0 182 30" fill="none" xmlns="http://www.w3.org/2000/svg">
<path d="M4.17239 5.09604L0 9.26843L4.17239 13.4408L8.34478 9.26843L4.17239 5.09604Z" fill="#1A3A3F"/>
<path d="M8.35162 9.26665L4.17766 5.09268C5.28377 6.1992 5.90516 7.69973 5.90516 9.2643C5.90516 10.8289 5.28377 12.3294 4.17766 13.436L0.00366211 17.6053L4.17766 21.7792L8.35162 17.6053L12.5256 13.436L8.35162 9.26665Z" fill="url(#paint0_linear_35_176)"/>
<path d="M22.701 21.7882L26.8732 17.6158L22.701 13.4434L18.5286 17.6158L22.701 21.7882Z" fill="#1A3A3F"/>
<path d="M18.5294 17.6146L22.7034 21.7839C21.5972 20.6774 20.9759 19.1769 20.9759 17.6123C20.9759 16.0477 21.5972 14.5472 22.7034 13.4406L26.8774 9.26665L22.7034 5.09268L18.5294 9.26665L14.3601 13.4406L18.5294 17.6146Z" fill="#1A3A3F"/>
<path d="M5.0957 22.7057L9.26809 26.878L13.4405 22.7057L9.26809 18.5332L5.0957 22.7057Z" fill="#1A3A3F"/>
<path d="M9.26893 18.5269L5.09497 22.7009C6.20149 21.5948 7.70199 20.9734 9.26659 20.9734C10.8312 20.9734 12.3317 21.5948 13.4382 22.7009L17.6075 26.8749L21.7815 22.7009L17.6075 18.5269L13.4382 14.3576L9.26893 18.5269Z" fill="#DDE2E3"/>
<path d="M21.7882 4.17242L17.6157 0L13.4434 4.17239L17.6157 8.34481L21.7882 4.17242Z" fill="#1A3A3F"/>
<path d="M17.6169 8.34949L21.7862 4.17552C20.6797 5.28164 19.1791 5.90303 17.6146 5.90303C16.05 5.90303 14.5494 5.28164 13.4429 4.17552L9.26893 0.00152588L5.09497 4.17552L9.26893 8.34949L13.4429 12.5235L17.6169 8.34949Z" fill="#1A3A3F"/>
<path d="M34.4033 2.68777H50.0016V5.89748H38.1967V11.455H49.1216V14.4864H38.1967V20.6978H50.2141V23.9075H34.4033V2.68777Z" fill="#1A3A3F"/>
<path d="M53.5183 2.68777H63.0776C64.6152 2.68777 65.8695 2.90572 66.8406 3.3416C67.8117 3.77749 68.5602 4.32235 69.0863 4.97617C69.6123 5.63 69.9663 6.34327 70.1484 7.11598C70.3507 7.88868 70.4519 8.60195 70.4519 9.25578C70.4519 9.90961 70.3507 10.6229 70.1484 11.3956C69.9663 12.1485 69.6123 12.8518 69.0863 13.5057C68.5602 14.1595 67.8117 14.7044 66.8406 15.1402C65.8695 15.5563 64.6152 15.7643 63.0776 15.7643H57.3117V23.9075H53.5183V2.68777ZM57.3117 12.733H62.8651C63.29 12.733 63.725 12.6735 64.1701 12.5546C64.6152 12.4358 65.0198 12.2475 65.3839 11.99C65.7683 11.7126 66.0718 11.356 66.2943 10.9201C66.5371 10.4644 66.6585 9.8997 66.6585 9.22606C66.6585 8.5326 66.5574 7.95803 66.355 7.50233C66.1527 7.04663 65.8796 6.69 65.5357 6.43243C65.1917 6.15505 64.7972 5.96682 64.3521 5.86776C63.9071 5.76869 63.4316 5.71916 62.9258 5.71916H57.3117V12.733Z" fill="#1A3A3F"/>
<path d="M80.0554 2.68777H89.038C90.697 2.68777 92.1334 2.96516 93.3473 3.51992C94.5612 4.07468 95.5525 4.83748 96.3213 5.80832C97.0901 6.75934 97.6566 7.87878 98.0207 9.16662C98.4051 10.4545 98.5973 11.8315 98.5973 13.2976C98.5973 14.7638 98.4051 16.1408 98.0207 17.4286C97.6566 18.7165 97.0901 19.8458 96.3213 20.8167C95.5525 21.7677 94.5612 22.5206 93.3473 23.0753C92.1334 23.6301 90.697 23.9075 89.038 23.9075H80.0554V2.68777ZM83.8487 20.8761H87.5814C89.0583 20.8761 90.262 20.6879 91.1927 20.3114C92.1435 19.9152 92.882 19.3802 93.408 18.7066C93.9542 18.0131 94.3184 17.2107 94.5005 16.2993C94.7028 15.3681 94.804 14.3675 94.804 13.2976C94.804 12.2277 94.7028 11.2371 94.5005 10.3257C94.3184 9.39447 93.9542 8.59204 93.408 7.9184C92.882 7.22495 92.1435 6.69 91.1927 6.31355C90.262 5.91729 89.0583 5.71916 87.5814 5.71916H83.8487V20.8761Z" fill="#1A3A3F"/>
<path d="M101.562 2.68777H105.021V5.89748H101.562V2.68777ZM101.562 8.54251H105.021V23.9075H101.562V8.54251Z" fill="#1A3A3F"/>
<path d="M111.4 18.974C111.502 19.9647 111.886 20.6581 112.554 21.0544C113.221 21.4507 114.02 21.6488 114.951 21.6488C115.275 21.6488 115.639 21.629 116.043 21.5894C116.468 21.5299 116.863 21.4309 117.227 21.2922C117.591 21.1535 117.884 20.9553 118.107 20.6978C118.35 20.4204 118.461 20.0638 118.441 19.6279C118.421 19.192 118.259 18.8354 117.955 18.558C117.652 18.2806 117.257 18.0626 116.772 17.9041C116.306 17.7258 115.77 17.5772 115.163 17.4584C114.556 17.3395 113.939 17.2107 113.312 17.072C112.665 16.9333 112.038 16.7649 111.431 16.5668C110.844 16.3686 110.308 16.1012 109.822 15.7643C109.357 15.4275 108.983 15.0015 108.7 14.4864C108.416 13.9515 108.275 13.2976 108.275 12.5249C108.275 11.6928 108.477 10.9993 108.882 10.4446C109.306 9.86998 109.832 9.41428 110.46 9.07746C111.107 8.72083 111.815 8.47317 112.584 8.33448C113.373 8.19578 114.121 8.12644 114.83 8.12644C115.639 8.12644 116.408 8.2156 117.136 8.39391C117.885 8.55242 118.552 8.81989 119.139 9.19634C119.746 9.57279 120.241 10.0681 120.626 10.6823C121.03 11.2767 121.283 11.9999 121.385 12.8518H117.773C117.611 12.0395 117.227 11.4946 116.62 11.2173C116.033 10.9399 115.356 10.8012 114.587 10.8012C114.344 10.8012 114.051 10.821 113.707 10.8606C113.383 10.9003 113.069 10.9795 112.766 11.0984C112.483 11.1975 112.24 11.356 112.038 11.5739C111.835 11.772 111.734 12.0395 111.734 12.3763C111.734 12.7924 111.876 13.1292 112.159 13.3868C112.463 13.6444 112.847 13.8623 113.312 14.0406C113.798 14.1991 114.344 14.3378 114.951 14.4567C115.558 14.5756 116.185 14.7043 116.832 14.843C117.46 14.9817 118.077 15.1501 118.684 15.3483C119.291 15.5464 119.827 15.8139 120.292 16.1507C120.778 16.4875 121.162 16.9135 121.445 17.4286C121.749 17.9438 121.9 18.5778 121.9 19.3307C121.9 20.2421 121.688 21.0148 121.263 21.6488C120.838 22.2828 120.282 22.798 119.594 23.1942C118.926 23.5905 118.178 23.8778 117.348 24.0561C116.519 24.2344 115.7 24.3236 114.89 24.3236C113.899 24.3236 112.978 24.2146 112.129 23.9966C111.299 23.7787 110.571 23.4518 109.944 23.0159C109.337 22.5602 108.851 22.0054 108.487 21.3516C108.143 20.678 107.961 19.8854 107.941 18.974H111.4Z" fill="#1A3A3F"/>
<path d="M124.618 8.54251H127.896V10.6229H127.956C128.442 9.73129 129.12 9.09728 129.99 8.72083C130.859 8.32457 131.8 8.12644 132.812 8.12644C134.046 8.12644 135.118 8.34438 136.029 8.78027C136.959 9.19634 137.728 9.78082 138.335 10.5337C138.942 11.2668 139.397 12.1287 139.701 13.1193C140.004 14.11 140.156 15.17 140.156 16.2993C140.156 17.3296 140.014 18.3301 139.731 19.301C139.468 20.2718 139.053 21.1337 138.487 21.8866C137.94 22.6196 137.242 23.214 136.393 23.6697C135.543 24.1056 134.542 24.3236 133.388 24.3236C132.883 24.3236 132.377 24.274 131.871 24.175C131.365 24.0957 130.88 23.957 130.414 23.7589C129.949 23.5608 129.514 23.3131 129.109 23.0159C128.725 22.6989 128.401 22.3323 128.138 21.9163H128.078V29.5839H124.618V8.54251ZM136.696 16.2399C136.696 15.5464 136.605 14.8728 136.423 14.2189C136.241 13.5651 135.968 12.9905 135.604 12.4952C135.24 11.9801 134.784 11.5739 134.238 11.2767C133.692 10.9597 133.065 10.8012 132.357 10.8012C130.9 10.8012 129.797 11.2965 129.049 12.2872C128.32 13.2778 127.956 14.5954 127.956 16.2399C127.956 17.0126 128.047 17.7357 128.229 18.4094C128.432 19.0632 128.725 19.6279 129.109 20.1034C129.494 20.5789 129.949 20.9553 130.475 21.2327C131.021 21.5101 131.648 21.6488 132.357 21.6488C133.146 21.6488 133.813 21.4903 134.359 21.1733C134.906 20.8563 135.351 20.4501 135.695 19.9548C136.059 19.4397 136.312 18.8651 136.453 18.2311C136.615 17.5772 136.696 16.9135 136.696 16.2399Z" fill="#1A3A3F"/>
<path d="M143.17 2.68777H146.63V23.9075H143.17V2.68777Z" fill="#1A3A3F"/>
<path d="M163.539 20.4897C163.539 20.9058 163.59 21.203 163.691 21.3813C163.812 21.5596 164.035 21.6488 164.359 21.6488C164.46 21.6488 164.581 21.6488 164.723 21.6488C164.864 21.6488 165.026 21.629 165.208 21.5894V23.9372C165.087 23.9768 164.925 24.0165 164.723 24.0561C164.541 24.1155 164.348 24.165 164.146 24.2047C163.944 24.2443 163.742 24.274 163.539 24.2938C163.337 24.3136 163.165 24.3236 163.023 24.3236C162.315 24.3236 161.728 24.1849 161.263 23.9075C160.798 23.6301 160.494 23.1447 160.353 22.4512C159.665 23.1051 158.815 23.5806 157.804 23.8778C156.812 24.175 155.851 24.3236 154.921 24.3236C154.213 24.3236 153.535 24.2245 152.887 24.0264C152.24 23.848 151.663 23.5806 151.158 23.2239C150.672 22.8475 150.278 22.3819 149.974 21.8271C149.691 21.2525 149.549 20.5888 149.549 19.8359C149.549 18.8849 149.721 18.1122 150.065 17.5178C150.429 16.9234 150.895 16.4578 151.461 16.121C152.048 15.7842 152.695 15.5464 153.403 15.4077C154.132 15.2492 154.86 15.1303 155.588 15.0511C156.215 14.9322 156.812 14.8529 157.379 14.8133C157.945 14.7539 158.441 14.6647 158.866 14.5458C159.311 14.427 159.655 14.2487 159.898 14.0109C160.161 13.7533 160.292 13.3769 160.292 12.8816C160.292 12.4457 160.181 12.089 159.958 11.8117C159.756 11.5343 159.493 11.3262 159.169 11.1875C158.866 11.029 158.522 10.93 158.137 10.8904C157.753 10.8309 157.389 10.8012 157.045 10.8012C156.074 10.8012 155.275 10.9993 154.648 11.3956C154.02 11.7918 153.666 12.406 153.585 13.2382H150.126C150.187 12.2475 150.429 11.4253 150.854 10.7715C151.279 10.1176 151.815 9.5926 152.463 9.19634C153.13 8.80008 153.879 8.5227 154.708 8.3642C155.538 8.20569 156.387 8.12644 157.257 8.12644C158.026 8.12644 158.785 8.20569 159.533 8.3642C160.282 8.5227 160.95 8.78027 161.536 9.1369C162.143 9.49353 162.629 9.95914 162.993 10.5337C163.357 11.0885 163.539 11.772 163.539 12.5844V20.4897ZM160.08 16.2101C159.554 16.547 158.906 16.755 158.137 16.8342C157.369 16.8937 156.6 16.9927 155.831 17.1314C155.467 17.1909 155.113 17.28 154.769 17.3989C154.425 17.498 154.122 17.6466 153.859 17.8447C153.596 18.023 153.383 18.2707 153.221 18.5877C153.08 18.8849 153.009 19.2514 153.009 19.6873C153.009 20.0638 153.12 20.3808 153.343 20.6383C153.565 20.8959 153.828 21.1039 154.132 21.2624C154.455 21.4011 154.799 21.5002 155.163 21.5596C155.548 21.6191 155.892 21.6488 156.195 21.6488C156.58 21.6488 156.994 21.5993 157.439 21.5002C157.885 21.4011 158.299 21.2327 158.684 20.995C159.088 20.7572 159.422 20.46 159.685 20.1034C159.948 19.7269 160.08 19.2712 160.08 18.7363V16.2101Z" fill="#1A3A3F"/>
<path d="M165.532 8.54251H169.325L173.422 20.0142H173.483L177.458 8.54251H181.069L174.97 24.7396C174.687 25.4331 174.403 26.0968 174.12 26.7308C173.857 27.3648 173.523 27.9196 173.119 28.3951C172.734 28.8904 172.249 29.2768 171.662 29.5542C171.075 29.8514 170.327 30 169.416 30C168.607 30 167.808 29.9405 167.019 29.8217V26.9686C167.302 27.0082 167.575 27.0478 167.838 27.0875C168.101 27.1469 168.374 27.1766 168.658 27.1766C169.062 27.1766 169.396 27.1271 169.659 27.028C169.922 26.929 170.135 26.7804 170.296 26.5822C170.478 26.4039 170.63 26.186 170.752 25.9284C170.873 25.6708 170.984 25.3736 171.085 25.0368L171.48 23.848L165.532 8.54251Z" fill="#1A3A3F"/>
<defs>
<linearGradient id="paint0_linear_35_176" x1="6.22253" y1="21.096" x2="6.32546" y2="6.66026" gradientUnits="userSpaceOnUse">
<stop stop-color="#1A3A3F"/>
<stop offset="1" stop-color="white"/>
</linearGradient>
</defs>
</svg>
