<svg width="50" height="50" viewBox="0 0 50 50" fill="none" xmlns="http://www.w3.org/2000/svg">
<path d="M7.76234 9.47998L0.00062561 17.2417L7.76234 25.0034L15.5241 17.2417L7.76234 9.47998Z" fill="#1A3A3F"/>
<path d="M15.537 17.2383L7.77233 9.47363C9.82999 11.532 10.9859 14.3234 10.9859 17.2339C10.9859 20.1445 9.82999 22.9359 7.77233 24.9943L0.00762558 32.7502L7.77233 40.5149L15.537 32.7502L23.3016 24.9943L15.537 17.2383Z" fill="url(#paint0_linear_2_1260)"/>
<path d="M42.2304 40.5317L49.9919 32.77L42.2304 25.0083L34.4687 32.77L42.2304 40.5317Z" fill="#1A3A3F"/>
<path d="M34.4699 32.7676L42.2346 40.5236C40.1769 38.4652 39.021 35.6738 39.021 32.7633C39.021 29.8528 40.1769 27.0614 42.2346 25.003L49.9994 17.2383L42.2346 9.47363L34.4699 17.2383L26.714 25.003L34.4699 32.7676Z" fill="#1A3A3F"/>
<path d="M9.47994 42.2383L17.2417 50L25.0034 42.2383L17.2417 34.4765L9.47994 42.2383Z" fill="#1A3A3F"/>
<path d="M17.243 34.4649L9.47835 42.2296C11.5367 40.1719 14.3281 39.016 17.2386 39.016C20.1491 39.016 22.9405 40.1719 24.9989 42.2296L32.755 49.9944L40.5196 42.2296L32.755 34.4649L24.9989 26.7089L17.243 34.4649Z" fill="#DDE2E3"/>
<path d="M40.5321 7.76178L32.7703 0L25.0086 7.76172L32.7703 15.5235L40.5321 7.76178Z" fill="#1A3A3F"/>
<path d="M32.7723 15.5321L40.5283 7.76746C38.4699 9.82511 35.6785 10.9811 32.768 10.9811C29.8574 10.9811 27.0661 9.82511 25.0076 7.76746L17.243 0.00274658L9.47835 7.76746L17.243 15.5321L25.0076 23.2968L32.7723 15.5321Z" fill="#1A3A3F"/>
<defs>
<linearGradient id="paint0_linear_2_1260" x1="11.5763" y1="39.244" x2="11.7678" y2="12.3897" gradientUnits="userSpaceOnUse">
<stop stop-color="#1A3A3F"/>
<stop offset="1" stop-color="white"/>
</linearGradient>
</defs>
</svg>
