<svg width="21" height="20" viewBox="0 0 21 20" fill="none" xmlns="http://www.w3.org/2000/svg">
<mask id="mask0_37_318" style="mask-type:alpha" maskUnits="userSpaceOnUse" x="0" y="0" width="21" height="20">
<rect x="0.5" width="20" height="20" fill="#D9D9D9"/>
</mask>
<g mask="url(#mask0_37_318)">
<path d="M10.5014 9.88782C10.9161 9.88782 11.2706 9.74018 11.5649 9.4449C11.8592 9.14962 12.0064 8.79466 12.0064 8.38C12.0064 7.96535 11.8588 7.61086 11.5635 7.31653C11.2682 7.02219 10.9132 6.87503 10.4986 6.87503C10.0839 6.87503 9.72944 7.02266 9.43511 7.31794C9.14077 7.61322 8.99361 7.96819 8.99361 8.38284C8.99361 8.79749 9.14125 9.15198 9.43652 9.44632C9.7318 9.74065 10.0868 9.88782 10.5014 9.88782ZM10.5 17.9247C8.40279 16.1073 6.83015 14.4161 5.78207 12.851C4.734 11.2858 4.20996 9.84883 4.20996 8.54007C4.20996 6.61701 4.83202 5.06013 6.07615 3.86942C7.32026 2.67871 8.79488 2.08336 10.5 2.08336C12.2051 2.08336 13.6797 2.67871 14.9239 3.86942C16.168 5.06013 16.79 6.61701 16.79 8.54007C16.79 9.84883 16.266 11.2858 15.2179 12.851C14.1699 14.4161 12.5972 16.1073 10.5 17.9247Z" fill="#1A3A3F"/>
</g>
</svg>
