<svg width="14" height="14" viewBox="0 0 14 14" fill="none" xmlns="http://www.w3.org/2000/svg">
<g clip-path="url(#clip0_37_475)">
<path d="M8.75218 12.9817C9.36672 13.3781 10.099 13.5509 10.826 13.471C11.5529 13.391 12.2302 13.0632 12.7438 12.5426L13.1929 12.1035C13.3898 11.9021 13.5 11.6317 13.5 11.3501C13.5 11.0685 13.3898 10.798 13.1929 10.5967L11.2869 8.71061C11.0872 8.51437 10.8184 8.40441 10.5384 8.40441C10.2585 8.40441 9.98969 8.51437 9.79001 8.71061C9.58864 8.90749 9.3182 9.01772 9.03658 9.01772C8.75496 9.01772 8.48453 8.90749 8.28316 8.71061L5.28942 5.71687C5.18955 5.61845 5.11024 5.50116 5.05611 5.37182C5.00198 5.24248 4.9741 5.10366 4.9741 4.96345C4.9741 4.82323 5.00198 4.68442 5.05611 4.55507C5.11024 4.42573 5.18955 4.30844 5.28942 4.21002C5.48566 4.01034 5.59562 3.74156 5.59562 3.46159C5.59562 3.18161 5.48566 2.91284 5.28942 2.71315L3.3934 0.817115C3.192 0.620241 2.9216 0.51001 2.64 0.51001C2.3583 0.51001 2.0879 0.620241 1.8865 0.817115L1.4474 1.26618C0.9269 1.77984 0.5991 2.45709 0.5191 3.18403C0.4391 3.91098 0.6119 4.64329 1.0084 5.25783C3.0741 8.3022 5.70249 10.9238 8.75218 12.9817Z" stroke="#1A3A3F" stroke-width="1.2" stroke-linecap="round" stroke-linejoin="round"/>
</g>
<defs>
<clipPath id="clip0_37_475">
<rect width="14" height="14" fill="white" transform="matrix(-1 0 0 1 14 0)"/>
</clipPath>
</defs>
</svg>
